PathFileType	4	(X/Y/Z)	S:\OneDrive - The University of Tokyo\ìåëÂéˆã∆\ÉoÉCÉÅÉJ\ë™íË\hirabayashi_2\Trimmed\Trimmed_BarL40kg1.trc
DataRate	CameraRate	NumFrames	NumMarkers	Units	OrigDataRate	OrigDataStartFrame	OrigNumFrames
200.00	200.00	       24	12	mm	200.00	31	       150
Frame#	Time	BarR0			BarR50			BarR100			BarR130			BarR180			BarR230			BarL0			BarL50			BarL100			BarL130			BarL180			BarL230			
		X1	Y1	Z1	X2	Y2	Z2	X3	Y3	Z3	X4	Y4	Z4	X5	Y5	Z5	X6	Y6	Z6	X7	Y7	Z7	X8	Y8	Z8	X9	Y9	Z9	X10	Y10	Z10	X11	Y11	Z11	X12	Y12	Z12	

31	0.150	-575.93896	2755.38428	1664.40979	-604.80798	2306.18018	1662.32727	-637.31787	1851.84460	1662.00244	-660.78204	1349.37695	1661.93652	-690.07782	902.69751	1662.69202	-713.81482	454.65869	1664.03857	-1113.28723	2807.28052	1664.61121	-1140.56494	2355.66162	1658.46667	-1171.14941	1905.54114	1653.12732	-1198.45374	1404.51331	1652.46533	-1226.98206	952.73584	1658.76501	-1244.51440	506.92804	1667.44971	
32	0.155	-575.93805	2755.38916	1664.44397	-604.83490	2306.13232	1662.34729	-637.28510	1851.79944	1662.00696	-660.76477	1349.38684	1661.95007	-690.08582	902.72607	1662.68811	-713.82440	454.64758	1664.05066	-1113.29968	2807.27026	1664.63123	-1140.56445	2355.65894	1658.48267	-1171.16418	1905.54907	1653.15503	-1198.45007	1404.51025	1652.47180	-1226.96021	952.72131	1658.78833	-1244.49634	506.89444	1667.44202	
33	0.160	-575.94592	2755.37500	1664.43274	-604.84930	2306.22046	1662.34717	-637.32837	1851.82959	1661.99792	-660.78717	1349.24841	1661.95447	-690.06671	902.70923	1662.70459	-713.80591	454.63132	1664.05298	-1113.30908	2807.25586	1664.63171	-1140.53198	2355.64917	1658.47986	-1171.16980	1905.54419	1653.17505	-1198.46216	1404.51526	1652.48230	-1226.98145	952.72076	1658.78601	-1244.50098	506.92136	1667.46680	
34	0.165	-575.93915	2755.37329	1664.43274	-604.82159	2306.17847	1662.34460	-637.32141	1851.82983	1662.01160	-660.79132	1349.40466	1661.93896	-690.07990	902.71600	1662.69751	-713.80054	454.63321	1664.05371	-1113.30212	2807.26416	1664.63049	-1140.54041	2355.65894	1658.48621	-1171.16785	1905.54370	1653.16138	-1198.54041	1404.15332	1653.03589	-1226.97131	952.72888	1658.77954	-1244.51062	506.92584	1667.46350	
35	0.170	-575.92548	2755.37549	1664.42981	-604.81476	2306.17627	1662.35107	-637.29846	1851.83447	1661.99500	-660.77429	1349.27295	1661.91626	-690.07813	902.69067	1662.68616	-713.79999	454.64270	1664.04199	-1113.30481	2807.26074	1664.62610	-1140.54407	2355.67114	1658.47815	-1171.15979	1905.53357	1653.14233	-1198.46326	1404.49927	1652.46045	-1226.94751	952.72174	1658.78235	-1244.49182	506.90186	1667.44641	
36	0.175	-575.93597	2755.38550	1664.41589	-604.80933	2306.16504	1662.34387	-637.31421	1851.81128	1661.99353	-660.79364	1349.28772	1661.90259	-690.08142	902.70892	1662.68372	-713.79236	454.64212	1664.03601	-1113.30078	2807.27197	1664.61572	-1140.53186	2355.66626	1658.46912	-1171.15649	1905.53735	1653.14417	-1198.44910	1404.51343	1652.46350	-1226.97058	952.73132	1658.77637	-1244.50610	506.90402	1667.45398	
37	0.180	-575.93561	2755.37744	1664.43115	-604.80383	2306.20068	1662.31592	-637.31439	1851.79285	1661.99683	-660.77679	1349.39441	1661.92517	-690.06342	902.71802	1662.69580	-713.80615	454.64627	1664.03650	-1113.28735	2807.30200	1664.61914	-1140.55225	2355.65771	1658.47546	-1171.17163	1905.55042	1653.16333	-1198.45251	1404.52563	1652.46753	-1226.96716	952.72638	1658.77588	-1244.49524	506.89709	1667.45349	
38	0.185	-575.93805	2755.38208	1664.42749	-604.81427	2306.19385	1662.34241	-637.30664	1851.83923	1662.00708	-660.77295	1349.25500	1661.93713	-690.05609	902.71808	1662.70105	-713.79529	454.63864	1664.04858	-1113.30347	2807.25488	1664.63000	-1140.53088	2355.65234	1658.47241	-1171.19165	1905.53943	1653.15771	-1198.45190	1404.52026	1652.48865	-1226.96680	952.74176	1658.78162	-1244.52246	506.93875	1667.46497	
39	0.190	-575.93469	2755.38086	1664.43262	-604.81903	2306.20996	1662.34766	-637.31183	1851.83044	1662.00281	-660.79315	1349.24890	1661.93982	-690.06061	902.71332	1662.69507	-713.81061	454.63568	1664.04175	-1113.29541	2807.26099	1664.62073	-1140.54956	2355.65454	1658.48633	-1171.18555	1905.54199	1653.16370	-1198.46021	1404.49622	1652.48596	-1226.96472	952.72089	1658.79797	-1244.49414	506.90106	1667.46277	
40	0.195	-575.93390	2755.36548	1664.43359	-604.78119	2306.17603	1662.32471	-637.29413	1851.80908	1662.01563	-660.76733	1349.39648	1661.91968	-690.05554	902.71039	1662.69385	-713.80664	454.63678	1664.03918	-1113.34241	2807.25781	1664.60681	-1140.52075	2355.68823	1658.48132	-1171.16296	1905.54968	1653.14697	-1198.52148	1404.11792	1653.02307	-1226.97205	952.70941	1658.79150	-1244.49634	506.89755	1667.45569	
41	0.200	-575.93939	2755.36108	1664.42395	-604.81427	2306.18579	1662.32861	-637.30994	1851.79187	1662.01038	-660.79755	1349.40747	1661.91711	-690.06647	902.70160	1662.67749	-713.81146	454.63928	1664.03149	-1113.30688	2807.26514	1664.61230	-1140.53223	2355.69507	1658.46130	-1171.17688	1905.53357	1653.14099	-1198.54077	1404.11523	1653.03186	-1226.97229	952.70673	1658.78455	-1244.49182	506.89682	1667.44446	
42	0.205	-575.93494	2755.37524	1664.42688	-604.79858	2306.19458	1662.34399	-637.30786	1851.85486	1661.97900	-660.80389	1349.24719	1661.93787	-690.07123	902.71472	1662.67944	-713.80908	454.63370	1664.04053	-1113.30957	2807.27368	1664.60522	-1140.55103	2355.66016	1658.46753	-1171.16260	1905.53455	1653.16077	-1198.45911	1404.50305	1652.47351	-1226.96558	952.71136	1658.78186	-1244.48938	506.88922	1667.44739	
43	0.210	-575.93939	2755.37305	1664.43274	-604.84918	2306.18115	1662.35071	-637.32275	1851.81482	1662.00159	-660.78442	1349.27380	1661.93542	-690.07440	902.70392	1662.69812	-713.81714	454.62955	1664.04041	-1113.32031	2807.25293	1664.61780	-1140.52576	2355.65649	1658.47363	-1171.17346	1905.53064	1653.14819	-1198.43738	1404.50024	1652.47253	-1226.96216	952.72650	1658.78271	-1244.51074	506.90674	1667.45740	
44	0.215	-575.94141	2755.37280	1664.44067	-604.83478	2306.17212	1662.33264	-637.31866	1851.82800	1662.00513	-660.79083	1349.29065	1661.93823	-690.07159	902.71680	1662.69629	-713.79993	454.62128	1664.05005	-1113.31091	2807.27100	1664.61926	-1140.52783	2355.68164	1658.48853	-1171.16455	1905.54150	1653.17615	-1198.46252	1404.50793	1652.47729	-1226.97070	952.71783	1658.77698	-1244.50647	506.93219	1667.46582	
45	0.220	-575.93073	2755.36963	1664.44580	-604.81903	2306.16284	1662.34509	-637.31506	1851.78284	1662.02625	-660.77850	1349.36511	1661.94836	-690.06140	902.71344	1662.70618	-713.80444	454.62720	1664.04517	-1113.28650	2807.28320	1664.62305	-1140.53882	2355.66577	1658.47107	-1171.15820	1905.54089	1653.16174	-1198.52588	1404.13257	1653.04724	-1226.97058	952.73102	1658.78577	-1244.50208	506.90625	1667.45227	
46	0.225	-575.93176	2755.38330	1664.43433	-604.82227	2306.15967	1662.33411	-637.34863	1851.83191	1661.99023	-660.77820	1349.38623	1661.92761	-690.07288	902.71808	1662.69507	-713.80347	454.64255	1664.04602	-1113.29651	2807.26294	1664.61499	-1140.52576	2355.66309	1658.49365	-1171.19519	1905.53748	1653.15637	-1198.54004	1404.14221	1653.02283	-1226.95093	952.71375	1658.78723	-1244.49121	506.91168	1667.43237	
47	0.230	-575.94104	2755.38745	1664.42322	-604.80774	2306.15649	1662.32935	-637.30548	1851.82813	1661.98755	-660.80255	1349.24243	1661.92188	-690.06641	902.70581	1662.69519	-713.80420	454.65793	1664.03833	-1113.29688	2807.27026	1664.61316	-1140.56763	2355.62964	1658.45911	-1171.15234	1905.54810	1653.15588	-1198.44055	1404.51636	1652.46045	-1226.97217	952.72247	1658.77612	-1244.48926	506.89490	1667.44104	
48	0.235	-575.94330	2755.37280	1664.42786	-604.79730	2306.19824	1662.34070	-637.28662	1851.80042	1661.98218	-660.76849	1349.38000	1661.93359	-690.06348	902.71576	1662.68164	-713.80206	454.62088	1664.04846	-1113.27771	2807.26636	1664.61633	-1140.53906	2355.66724	1658.48462	-1171.16846	1905.52832	1653.15100	-1198.43921	1404.51050	1652.46191	-1226.96021	952.72925	1658.78149	-1244.50354	506.91336	1667.44714	
49	0.240	-575.93475	2755.37427	1664.43481	-604.79724	2306.14526	1662.33728	-637.32141	1851.81189	1662.01282	-660.78094	1349.40283	1661.94531	-690.06128	902.70898	1662.72473	-713.80743	454.63834	1664.05652	-1113.33252	2807.25000	1664.62207	-1140.54077	2355.66675	1658.48804	-1171.16736	1905.53564	1653.15845	-1198.53406	1404.14136	1653.03406	-1226.97852	952.71741	1658.76392	-1244.50208	506.91745	1667.44629	
50	0.245	-575.94745	2755.39209	1664.44800	-604.83185	2306.20874	1662.34326	-637.31860	1851.84094	1662.01477	-660.77399	1349.39209	1661.93787	-690.07776	902.69843	1662.69580	-713.80890	454.66785	1664.04651	-1113.27881	2807.27173	1664.61169	-1140.55322	2355.67114	1658.49133	-1171.17639	1905.52271	1653.16821	-1198.45117	1404.52246	1652.47437	-1226.96472	952.72455	1658.78638	-1244.49475	506.90085	1667.46143	
51	0.250	-575.93628	2755.36816	1664.41833	-604.81091	2306.17480	1662.34155	-637.31641	1851.80554	1662.01196	-660.78125	1349.25146	1661.93689	-690.08246	902.70068	1662.67920	-713.80511	454.65598	1664.05273	-1113.30420	2807.25000	1664.62122	-1140.53589	2355.69336	1658.47095	-1171.16553	1905.54004	1653.15991	-1198.46155	1404.50732	1652.47278	-1226.97534	952.71454	1658.78784	-1244.48657	506.88724	1667.44958	
52	0.255	-575.93158	2755.37695	1664.42126	-604.79199	2306.19653	1662.32727	-637.29895	1851.82349	1661.99866	-660.76459	1349.38232	1661.92542	-690.07751	902.71265	1662.69043	-713.81879	454.64536	1664.03101	-1113.31030	2807.26489	1664.62341	-1140.53503	2355.66089	1658.49304	-1171.16956	1905.53247	1653.14978	-1198.51782	1404.12976	1653.03784	-1226.98096	952.71246	1658.78125	-1244.49902	506.89194	1667.43909	
53	0.260	-575.94745	2755.38647	1664.43640	-604.79120	2306.17920	1662.32703	-637.32800	1851.82886	1662.01331	-660.79352	1349.40222	1661.92603	-690.08228	902.70050	1662.68616	-713.81177	454.66245	1664.03650	-1113.31274	2807.27588	1664.60596	-1140.55823	2355.66357	1658.47119	-1171.18237	1905.53308	1653.16589	-1198.53015	1404.14539	1653.02576	-1226.96265	952.71783	1658.78296	-1244.48706	506.90292	1667.44299	
54	0.265	-575.93341	2755.36548	1664.42200	-604.81329	2306.19336	1662.33594	-637.32312	1851.83203	1662.00659	-660.80914	1349.29272	1661.92468	-690.07178	902.72260	1662.69690	-713.79578	454.63110	1664.04590	-1113.31592	2807.28320	1664.62402	-1140.56592	2355.66138	1658.48279	-1171.15930	1905.54761	1653.14844	-1198.44617	1404.51038	1652.46753	-1226.97290	952.71912	1658.76746	-1244.51111	506.94250	1667.44348	
